<svg xmlns="http://www.w3.org/2000/svg" viewBox="6.4094 4.9795 245.6466 52.6193">
  <defs>
    <style>      .cls-1 {        fill: #0a2f2a;      }      .cls-2 {        fill: #4ca15d;      }    </style>
  </defs>
  <g transform="matrix(0.9999999999999999, 0, 0, 0.9999999999999999, 6.4126319885253835, 4.984514236450188)">
    <path class="cls-2" d="M43.31,23.35l-11.16,.63c-5.08,.26-7.98,3.23-8.25,8.3l-.63,11.16c-.05,1.11,1,1.48,1.85,.58l18.77-18.82c.85-.9,.53-1.9-.58-1.85Z"/>
    <path class="cls-2" d="M25.12,.5c-.85-.9-1.9-.53-1.85,.58l.63,11.16c.26,5.08,3.17,8.04,8.25,8.3l11.16,.63c1.11,.05,1.43-.95,.58-1.85L25.12,.5Z"/>
    <g>
      <path class="cls-2" d="M20.47,32.28c-.26-5.08-3.17-8.04-8.25-8.3l-11.16-.63c-1.11-.05-1.43,1-.58,1.85l18.77,18.82c.85,.9,1.9,.53,1.85-.58l-.63-11.16Z"/>
      <path class="cls-2" d="M19.25,.5L.48,19.33c-.85,.85-.53,1.9,.58,1.85l11.16-.63c5.08-.26,7.98-3.23,8.25-8.3l.63-11.16c.05-1.11-1-1.48-1.85-.58Z"/>
    </g>
  </g>
  <g transform="matrix(0.9999999999999999, 0, 0, 0.9999999999999999, 14.86600494384765, 0.7087789773940969)">
    <g>
      <g>
        <polygon class="cls-1" points="186.7 7.23 181.69 7.23 176.25 13.2 180.63 13.2 186.7 7.23"/>
        <path class="cls-1" d="M209.25,19.97c-1.71-2.77-4.48-4.16-7.57-4.16-5.49,0-10.18,4.64-10.18,10.98,0,6.77,4.42,10.93,10.18,10.93,3.36,0,5.86-1.65,7.57-3.95v3.52h3.95V7.23h-3.95v12.74Zm0,9.6c-1.01,2.72-3.47,4.69-6.77,4.69-3.84,0-6.93-2.83-6.93-7.46,0-4.9,2.99-7.52,6.93-7.52,3.31,0,5.81,2.19,6.77,4.9v5.38Z"/>
        <path class="cls-1" d="M237.19,25.83c0-5.76-4-10.02-10.24-10.02-5.86,0-10.5,4.69-10.5,10.98,0,6.72,4.37,10.93,10.77,10.93,4.16,0,7.62-1.76,9.22-4.58l-2.99-2.03c-1.17,1.87-3.47,3.15-6.13,3.15-3.53,0-6.5-2.27-6.89-6.5h16.59c.11-.64,.16-1.28,.16-1.92Zm-16.53-1.39c.72-3.06,2.9-5.17,6.3-5.17s5.92,2.03,6.18,5.17h-12.48Z"/>
        <path class="cls-1" d="M184.46,28.66c0,4.05-2.19,5.6-5.38,5.6s-5.38-1.71-5.38-5.6v-12.42h-3.95v12.1c0,6.45,3.68,9.38,9.33,9.38s9.33-3.15,9.33-9.38v-12.1h-3.95v12.42Z"/>
        <path class="cls-1" d="M134.35,24.87c-3.04-.8-4.69-1.28-4.69-3.04,0-1.55,1.44-2.56,3.84-2.56s4.58,.85,6.13,2.24l1.81-3.09c-1.81-1.71-4.85-2.61-7.73-2.61-4.74,0-8,2.56-8,6.4,0,4.21,3.84,5.38,7.2,6.18,2.61,.64,4.96,1.39,4.96,3.2,0,1.65-1.49,2.67-4.21,2.67-2.56,0-5.06-1.07-6.88-2.61l-1.81,3.09c2.08,1.81,5.54,2.99,8.9,2.99,4.8,0,8-2.61,8-6.4,0-4-3.31-5.33-7.52-6.45Z"/>
        <path class="cls-1" d="M161.75,19.97c-1.71-2.77-4.48-4.16-7.57-4.16-5.49,0-10.18,4.64-10.18,10.98,0,6.77,4.42,10.93,10.18,10.93,3.36,0,5.86-1.65,7.57-3.95v3.52h3.95V16.24h-3.95v3.73Zm0,9.6c-1.01,2.72-3.47,4.69-6.77,4.69-3.84,0-6.93-2.83-6.93-7.46,0-4.9,2.99-7.52,6.93-7.52,3.31,0,5.81,2.19,6.77,4.9v5.38Z"/>
      </g>
      <path class="cls-1" d="M75.97,26.11v-1c4.38-.53,7.23-3.85,7.23-8.12,0-6.86-5.43-9.76-12.29-9.76h-19.3v30.06h7.23v-9.23h9.49c5.75,0,6.86,4.85,8.07,9.23h8.07c-1.53-5.75-2.8-10.39-8.49-11.18Zm-5.54-4.11h-11.6V13.29h11.6c2.95,0,5.38,1.27,5.38,4.33,0,2.8-2.22,4.38-5.38,4.38Z"/>
      <path class="cls-1" d="M102.75,7.23h-14.5v30.06h14.5c9.97,0,17.88-5.01,17.88-15.03,0-9.28-7.49-15.03-17.88-15.03Zm0,24h-7.28V13.29h7.28c6.17,0,10.5,3.48,10.5,8.97,0,6.07-4.75,8.97-10.5,8.97Z"/>
    </g>
    <g>
      <path class="cls-1" d="M51.6,48.13h1.2l.05,.79c.21-.28,.48-.5,.79-.66,.32-.16,.67-.24,1.07-.24,.51,0,.97,.13,1.4,.39s.76,.63,1.01,1.11c.25,.48,.37,1.03,.37,1.64s-.13,1.16-.39,1.64c-.26,.49-.61,.87-1.05,1.14-.44,.27-.91,.41-1.41,.41-.36,0-.68-.08-.98-.23-.3-.15-.54-.35-.74-.6v3.37h-1.32v-8.76Zm3.74,4.81c.26-.16,.46-.39,.6-.69,.15-.3,.22-.65,.22-1.07s-.07-.78-.21-1.07c-.14-.3-.33-.52-.58-.68-.25-.15-.54-.23-.87-.23s-.63,.08-.91,.23c-.27,.15-.5,.36-.69,.61v2.29c.17,.26,.39,.47,.66,.62,.26,.15,.57,.23,.92,.23,.32,0,.6-.08,.86-.24Z"/>
      <path class="cls-1" d="M59.9,53.95c-.47-.26-.84-.64-1.11-1.11-.27-.48-.4-1.03-.4-1.64s.13-1.17,.4-1.65c.27-.48,.64-.86,1.11-1.13,.47-.27,.99-.4,1.56-.4s1.09,.13,1.55,.4c.47,.27,.84,.64,1.11,1.12,.27,.48,.41,1.03,.41,1.64s-.14,1.15-.41,1.64-.64,.86-1.11,1.13c-.47,.27-.98,.4-1.55,.4s-1.09-.13-1.56-.4Zm2.45-1.02c.26-.15,.47-.38,.62-.68,.15-.3,.23-.65,.23-1.06s-.08-.77-.23-1.07c-.15-.3-.36-.53-.62-.69-.26-.16-.56-.24-.89-.24s-.63,.08-.89,.23c-.26,.15-.47,.38-.62,.68-.15,.3-.23,.66-.23,1.07s.08,.76,.23,1.06c.15,.3,.36,.52,.62,.68,.26,.16,.56,.24,.89,.24s.63-.08,.89-.23Z"/>
      <path class="cls-1" d="M65.81,48.13h1.2l.05,1.2c.23-.4,.52-.71,.87-.95,.35-.24,.74-.36,1.18-.36,.23,0,.41,.04,.56,.11v1.3c-.15-.05-.34-.07-.57-.07-.37,0-.73,.1-1.07,.3-.34,.2-.64,.49-.9,.88v3.72h-1.32v-6.13Z"/>
      <path class="cls-1" d="M73.81,54.08c-.32-.18-.56-.45-.74-.79s-.27-.77-.27-1.27v-3.9h1.32v3.82c0,.39,.09,.68,.28,.88,.19,.2,.44,.3,.76,.3s.63-.09,.91-.28c.28-.19,.53-.46,.75-.84v-3.89h1.32v6.14h-1.21l-.05-.97c-.23,.32-.51,.58-.85,.78-.34,.19-.72,.29-1.14,.29s-.76-.09-1.08-.27Z"/>
      <path class="cls-1" d="M79.78,48.12h1.2l.05,1.14c.22-.38,.5-.68,.84-.9,.34-.22,.72-.33,1.14-.33s.79,.11,1.11,.33c.32,.22,.56,.53,.72,.94,.26-.4,.57-.7,.93-.93,.36-.23,.76-.34,1.19-.34,.4,0,.76,.1,1.07,.29,.31,.19,.55,.47,.72,.84,.17,.37,.25,.8,.25,1.3v3.8h-1.32v-3.63c0-.44-.09-.78-.28-1.02-.19-.24-.45-.36-.79-.36-.31,0-.59,.1-.85,.31-.26,.21-.49,.51-.7,.89v3.79h-1.32v-3.63c0-.44-.1-.78-.29-1.02-.19-.24-.46-.36-.79-.36s-.6,.11-.87,.32c-.26,.21-.49,.52-.7,.92v3.76h-1.32v-6.14Z"/>
      <path class="cls-1" d="M91.33,54.14c-.3-.14-.55-.35-.74-.63-.19-.28-.28-.61-.28-1s.1-.73,.31-1.02c.21-.28,.49-.5,.87-.65,.37-.15,.8-.23,1.28-.23,.45,0,.88,.09,1.29,.26v-.47c0-.39-.12-.69-.36-.89-.24-.21-.61-.31-1.1-.31-.66,0-1.28,.15-1.86,.46v-1.13c.61-.34,1.26-.51,1.97-.51,.56,0,1.04,.1,1.43,.3,.4,.2,.7,.48,.91,.84,.21,.36,.31,.78,.31,1.25v3.84h-1.21l-.04-.81c-.21,.28-.46,.51-.77,.66-.31,.16-.65,.24-1.02,.24s-.69-.07-.99-.21Zm2.06-1.04c.25-.13,.47-.34,.66-.62v-.76c-.36-.14-.73-.21-1.1-.21-.43,0-.75,.09-.97,.25-.22,.17-.33,.4-.33,.68s.09,.49,.27,.63,.4,.22,.68,.22,.54-.07,.79-.2Z"/>
      <path class="cls-1" d="M100.58,54.1c-.37-.17-.67-.4-.89-.69s-.35-.62-.39-1h1.24c.05,.27,.18,.48,.4,.63,.22,.15,.5,.23,.86,.23,.33,0,.59-.07,.78-.2,.19-.13,.28-.3,.28-.5,0-.17-.07-.3-.2-.4-.13-.1-.36-.2-.68-.3l-.79-.23c-.55-.17-.98-.39-1.27-.66-.29-.28-.44-.64-.44-1.1,0-.34,.09-.65,.28-.94,.19-.28,.45-.51,.79-.68,.34-.17,.73-.25,1.16-.25s.83,.08,1.17,.24c.34,.16,.6,.38,.81,.67,.2,.29,.33,.61,.37,.98h-1.21c-.06-.26-.19-.46-.37-.6-.18-.14-.44-.21-.77-.21s-.58,.07-.73,.2c-.16,.13-.24,.29-.24,.49,0,.17,.07,.3,.2,.41,.13,.11,.33,.21,.61,.28l.78,.23c.62,.18,1.07,.41,1.36,.68,.29,.27,.43,.64,.43,1.11,0,.34-.09,.65-.28,.94-.19,.28-.46,.51-.81,.68-.35,.17-.76,.25-1.21,.25s-.86-.08-1.23-.25Z"/>
      <path class="cls-1" d="M106.47,53.95c-.47-.26-.84-.64-1.11-1.11-.27-.48-.4-1.03-.4-1.64s.13-1.17,.4-1.65c.27-.48,.64-.86,1.11-1.13,.47-.27,.99-.4,1.56-.4s1.09,.13,1.55,.4c.47,.27,.84,.64,1.11,1.12,.27,.48,.41,1.03,.41,1.64s-.14,1.15-.41,1.64-.64,.86-1.11,1.13c-.47,.27-.98,.4-1.55,.4s-1.09-.13-1.56-.4Zm2.45-1.02c.26-.15,.47-.38,.62-.68,.15-.3,.23-.65,.23-1.06s-.08-.77-.23-1.07c-.15-.3-.36-.53-.62-.69-.26-.16-.56-.24-.89-.24s-.63,.08-.89,.23c-.26,.15-.47,.38-.62,.68-.15,.3-.23,.66-.23,1.07s.08,.76,.23,1.06c.15,.3,.36,.52,.62,.68,.26,.16,.56,.24,.89,.24s.63-.08,.89-.23Z"/>
      <path class="cls-1" d="M113.5,53.95c-.47-.26-.83-.64-1.1-1.12-.27-.48-.4-1.03-.4-1.65s.13-1.16,.4-1.64c.27-.48,.64-.85,1.1-1.12,.47-.27,.99-.4,1.56-.4,.51,0,.97,.1,1.36,.31,.4,.21,.71,.5,.95,.87s.38,.78,.43,1.23h-1.23c-.06-.36-.23-.65-.49-.88-.26-.23-.6-.34-1.01-.34-.35,0-.65,.08-.92,.24-.26,.16-.47,.38-.61,.68-.14,.29-.21,.65-.21,1.07s.07,.76,.22,1.06c.15,.3,.35,.52,.61,.68,.26,.16,.56,.24,.91,.24,.42,0,.76-.11,1.02-.33,.26-.22,.43-.51,.51-.88h1.23c-.06,.46-.2,.87-.44,1.23s-.56,.65-.96,.85c-.4,.21-.86,.31-1.37,.31-.58,0-1.1-.13-1.56-.4Z"/>
      <path class="cls-1" d="M119.09,46.75c-.17-.17-.25-.37-.25-.62s.08-.44,.25-.6c.17-.17,.38-.25,.62-.25s.45,.08,.62,.24,.25,.37,.25,.61-.09,.45-.25,.62c-.17,.17-.37,.25-.61,.25-.25,0-.46-.08-.63-.25Zm-.04,1.36h1.32v6.14h-1.32v-6.14Z"/>
      <path class="cls-1" d="M123.13,53.95c-.47-.26-.84-.64-1.1-1.12-.26-.48-.4-1.03-.4-1.65s.13-1.14,.39-1.62c.26-.48,.62-.86,1.08-1.13,.46-.28,.98-.41,1.56-.41s1.05,.12,1.48,.37c.43,.25,.77,.59,1.01,1.01,.24,.43,.36,.9,.36,1.41,0,.21-.02,.39-.06,.55h-4.48c0,.38,.09,.71,.25,.98,.16,.28,.37,.49,.63,.63,.26,.14,.56,.21,.89,.21,.39,0,.72-.1,.98-.29,.27-.19,.45-.44,.55-.74h1.23c-.06,.42-.23,.79-.49,1.13-.26,.33-.59,.59-.99,.78-.4,.19-.84,.28-1.31,.28-.58,0-1.11-.13-1.58-.4Zm2.77-4.23c-.13-.19-.3-.33-.51-.44-.21-.11-.46-.16-.73-.16-.39,0-.72,.11-1,.33-.28,.22-.48,.52-.59,.92h3.08c-.04-.24-.12-.46-.25-.65Z"/>
      <path class="cls-1" d="M129.76,53.96c-.43-.26-.76-.63-1.01-1.11-.25-.48-.37-1.03-.37-1.65s.13-1.14,.39-1.63,.61-.86,1.05-1.13c.44-.27,.91-.4,1.41-.4,.36,0,.68,.08,.98,.23,.3,.15,.55,.34,.75,.58v-3.57h1.32v8.98h-1.21l-.04-.81c-.22,.28-.49,.5-.81,.66s-.67,.24-1.07,.24c-.51,0-.97-.13-1.4-.39Zm2.51-1.01c.27-.15,.5-.36,.69-.61v-2.29c-.17-.25-.39-.46-.66-.61-.26-.15-.57-.23-.92-.23-.32,0-.6,.08-.85,.24-.25,.16-.45,.39-.6,.68-.15,.3-.22,.65-.22,1.06s.07,.78,.2,1.08c.13,.3,.32,.53,.57,.68,.24,.15,.53,.23,.87,.23s.65-.08,.92-.23Z"/>
      <path class="cls-1" d="M136.66,54.14c-.3-.14-.55-.35-.74-.63s-.28-.61-.28-1,.1-.73,.31-1.02c.21-.28,.49-.5,.87-.65,.37-.15,.8-.23,1.28-.23,.45,0,.88,.09,1.29,.26v-.47c0-.39-.12-.69-.36-.89-.24-.21-.61-.31-1.1-.31-.66,0-1.28,.15-1.86,.46v-1.13c.61-.34,1.26-.51,1.97-.51,.56,0,1.04,.1,1.43,.3,.4,.2,.7,.48,.91,.84s.31,.78,.31,1.25v3.84h-1.21l-.04-.81c-.21,.28-.46,.51-.77,.66s-.65,.24-1.02,.24-.69-.07-.99-.21Zm2.06-1.04c.25-.13,.47-.34,.66-.62v-.76c-.36-.14-.73-.21-1.1-.21-.43,0-.75,.09-.97,.25-.22,.17-.33,.4-.33,.68s.09,.49,.27,.63,.4,.22,.68,.22,.54-.07,.79-.2Z"/>
      <path class="cls-1" d="M143.27,53.96c-.43-.26-.76-.63-1.01-1.11-.25-.48-.37-1.03-.37-1.65s.13-1.14,.39-1.63,.61-.86,1.05-1.13c.44-.27,.91-.4,1.41-.4,.36,0,.68,.08,.98,.23,.3,.15,.55,.34,.75,.58v-3.57h1.32v8.98h-1.21l-.04-.81c-.22,.28-.49,.5-.81,.66s-.67,.24-1.07,.24c-.51,0-.97-.13-1.4-.39Zm2.51-1.01c.27-.15,.5-.36,.69-.61v-2.29c-.17-.25-.39-.46-.66-.61-.26-.15-.57-.23-.92-.23-.32,0-.6,.08-.85,.24-.25,.16-.45,.39-.6,.68-.15,.3-.22,.65-.22,1.06s.07,.78,.2,1.08c.13,.3,.32,.53,.57,.68,.24,.15,.53,.23,.87,.23s.65-.08,.92-.23Z"/>
      <path class="cls-1" d="M150.56,53.95c-.47-.26-.84-.64-1.1-1.12-.26-.48-.4-1.03-.4-1.65s.13-1.14,.39-1.62c.26-.48,.62-.86,1.08-1.13,.46-.28,.98-.41,1.56-.41s1.05,.12,1.48,.37c.43,.25,.77,.59,1.01,1.01,.24,.43,.36,.9,.36,1.41,0,.21-.02,.39-.06,.55h-4.48c0,.38,.09,.71,.25,.98,.16,.28,.37,.49,.63,.63,.26,.14,.56,.21,.89,.21,.39,0,.72-.1,.98-.29s.45-.44,.55-.74h1.23c-.06,.42-.23,.79-.49,1.13-.26,.33-.59,.59-.99,.78-.4,.19-.84,.28-1.31,.28-.58,0-1.11-.13-1.58-.4Zm2.77-4.23c-.13-.19-.3-.33-.51-.44-.21-.11-.46-.16-.73-.16-.39,0-.72,.11-1,.33-.28,.22-.48,.52-.59,.92h3.08c-.04-.24-.12-.46-.25-.65Z"/>
      <path class="cls-1" d="M158.88,48.12h1.2l.05,1.14c.22-.38,.5-.68,.84-.9,.34-.22,.72-.33,1.14-.33s.79,.11,1.11,.33c.32,.22,.56,.53,.72,.94,.26-.4,.57-.7,.93-.93s.76-.34,1.19-.34c.4,0,.76,.1,1.07,.29,.31,.19,.55,.47,.72,.84,.17,.37,.25,.8,.25,1.3v3.8h-1.32v-3.63c0-.44-.09-.78-.28-1.02-.19-.24-.45-.36-.79-.36-.31,0-.59,.1-.85,.31s-.49,.51-.7,.89v3.79h-1.32v-3.63c0-.44-.1-.78-.29-1.02-.19-.24-.46-.36-.79-.36s-.6,.11-.87,.32-.49,.52-.7,.92v3.76h-1.32v-6.14Z"/>
      <path class="cls-1" d="M170.43,54.14c-.3-.14-.55-.35-.74-.63s-.28-.61-.28-1,.1-.73,.31-1.02c.21-.28,.49-.5,.87-.65,.37-.15,.8-.23,1.28-.23,.45,0,.88,.09,1.29,.26v-.47c0-.39-.12-.69-.36-.89-.24-.21-.61-.31-1.1-.31-.66,0-1.28,.15-1.86,.46v-1.13c.61-.34,1.26-.51,1.97-.51,.56,0,1.04,.1,1.43,.3,.4,.2,.7,.48,.91,.84s.31,.78,.31,1.25v3.84h-1.21l-.04-.81c-.21,.28-.46,.51-.77,.66s-.65,.24-1.02,.24-.69-.07-.99-.21Zm2.06-1.04c.25-.13,.47-.34,.66-.62v-.76c-.36-.14-.73-.21-1.1-.21-.43,0-.75,.09-.97,.25-.22,.17-.33,.4-.33,.68s.09,.49,.27,.63,.4,.22,.68,.22,.54-.07,.79-.2Z"/>
      <path class="cls-1" d="M176.08,46.75c-.17-.17-.25-.37-.25-.62s.08-.44,.25-.6c.17-.17,.38-.25,.62-.25s.45,.08,.62,.24,.25,.37,.25,.61-.09,.45-.25,.62c-.17,.17-.37,.25-.61,.25-.25,0-.46-.08-.63-.25Zm-.04,1.36h1.32v6.14h-1.32v-6.14Z"/>
      <path class="cls-1" d="M179.94,54.1c-.37-.17-.67-.4-.89-.69s-.35-.62-.39-1h1.24c.05,.27,.18,.48,.4,.63,.22,.15,.5,.23,.86,.23,.33,0,.59-.07,.78-.2,.19-.13,.28-.3,.28-.5,0-.17-.07-.3-.2-.4-.13-.1-.36-.2-.68-.3l-.79-.23c-.55-.17-.98-.39-1.27-.66-.29-.28-.44-.64-.44-1.1,0-.34,.09-.65,.28-.94,.19-.28,.45-.51,.79-.68,.34-.17,.73-.25,1.16-.25s.83,.08,1.17,.24c.34,.16,.6,.38,.81,.67,.2,.29,.33,.61,.37,.98h-1.21c-.06-.26-.19-.46-.37-.6s-.44-.21-.77-.21-.58,.07-.73,.2c-.16,.13-.24,.29-.24,.49,0,.17,.07,.3,.2,.41,.13,.11,.33,.21,.61,.28l.78,.23c.62,.18,1.07,.41,1.36,.68,.29,.27,.43,.64,.43,1.11,0,.34-.09,.65-.28,.94-.19,.28-.46,.51-.81,.68-.35,.17-.76,.25-1.21,.25s-.86-.08-1.23-.25Z"/>
      <path class="cls-1" d="M188.34,54.1c-.37-.17-.67-.4-.89-.69s-.35-.62-.39-1h1.24c.05,.27,.18,.48,.4,.63,.22,.15,.5,.23,.86,.23,.33,0,.59-.07,.78-.2,.19-.13,.28-.3,.28-.5,0-.17-.07-.3-.2-.4-.13-.1-.36-.2-.68-.3l-.79-.23c-.55-.17-.98-.39-1.27-.66-.29-.28-.44-.64-.44-1.1,0-.34,.09-.65,.28-.94,.19-.28,.45-.51,.79-.68,.34-.17,.73-.25,1.16-.25s.83,.08,1.17,.24c.34,.16,.6,.38,.81,.67,.2,.29,.33,.61,.37,.98h-1.21c-.06-.26-.19-.46-.37-.6s-.44-.21-.77-.21-.58,.07-.73,.2c-.16,.13-.24,.29-.24,.49,0,.17,.07,.3,.2,.41,.13,.11,.33,.21,.61,.28l.78,.23c.62,.18,1.07,.41,1.36,.68,.29,.27,.43,.64,.43,1.11,0,.34-.09,.65-.28,.94-.19,.28-.46,.51-.81,.68-.35,.17-.76,.25-1.21,.25s-.86-.08-1.23-.25Z"/>
      <path class="cls-1" d="M193.78,54.14c-.3-.14-.55-.35-.74-.63s-.28-.61-.28-1,.1-.73,.31-1.02c.21-.28,.49-.5,.87-.65,.37-.15,.8-.23,1.28-.23,.45,0,.88,.09,1.29,.26v-.47c0-.39-.12-.69-.36-.89-.24-.21-.61-.31-1.1-.31-.66,0-1.28,.15-1.86,.46v-1.13c.61-.34,1.26-.51,1.97-.51,.56,0,1.04,.1,1.43,.3,.4,.2,.7,.48,.91,.84s.31,.78,.31,1.25v3.84h-1.21l-.04-.81c-.21,.28-.46,.51-.77,.66s-.65,.24-1.02,.24-.69-.07-.99-.21Zm2.06-1.04c.25-.13,.47-.34,.66-.62v-.76c-.36-.14-.73-.21-1.1-.21-.43,0-.75,.09-.97,.25-.22,.17-.33,.4-.33,.68s.09,.49,.27,.63,.4,.22,.68,.22,.54-.07,.79-.2Z"/>
      <path class="cls-1" d="M200.34,54.08c-.32-.18-.56-.45-.74-.79s-.27-.77-.27-1.27v-3.9h1.32v3.82c0,.39,.09,.68,.28,.88,.19,.2,.44,.3,.76,.3s.63-.09,.91-.28c.28-.19,.53-.46,.75-.84v-3.89h1.32v6.14h-1.21l-.05-.97c-.23,.32-.51,.58-.85,.78s-.72,.29-1.14,.29-.76-.09-1.08-.27Z"/>
      <path class="cls-1" d="M207.32,53.96c-.43-.26-.76-.63-1.01-1.11-.25-.48-.37-1.03-.37-1.65s.13-1.14,.39-1.63,.61-.86,1.05-1.13c.44-.27,.91-.4,1.41-.4,.36,0,.68,.08,.98,.23,.3,.15,.55,.34,.75,.58v-3.57h1.32v8.98h-1.21l-.04-.81c-.22,.28-.49,.5-.81,.66s-.67,.24-1.07,.24c-.51,0-.97-.13-1.4-.39Zm2.51-1.01c.27-.15,.5-.36,.69-.61v-2.29c-.17-.25-.39-.46-.66-.61-.26-.15-.57-.23-.92-.23-.32,0-.6,.08-.85,.24-.25,.16-.45,.39-.6,.68-.15,.3-.22,.65-.22,1.06s.07,.78,.2,1.08c.13,.3,.32,.53,.57,.68,.24,.15,.53,.23,.87,.23s.65-.08,.92-.23Z"/>
      <path class="cls-1" d="M214.22,54.14c-.3-.14-.55-.35-.74-.63s-.28-.61-.28-1,.1-.73,.31-1.02c.21-.28,.49-.5,.87-.65,.37-.15,.8-.23,1.28-.23,.45,0,.88,.09,1.29,.26v-.47c0-.39-.12-.69-.36-.89-.24-.21-.61-.31-1.1-.31-.66,0-1.28,.15-1.86,.46v-1.13c.61-.34,1.26-.51,1.97-.51,.56,0,1.04,.1,1.43,.3,.4,.2,.7,.48,.91,.84s.31,.78,.31,1.25v3.84h-1.21l-.04-.81c-.21,.28-.46,.51-.77,.66s-.65,.24-1.02,.24-.69-.07-.99-.21Zm2.06-1.04c.25-.13,.47-.34,.66-.62v-.76c-.36-.14-.73-.21-1.1-.21-.43,0-.75,.09-.97,.25-.22,.17-.33,.4-.33,.68s.09,.49,.27,.63,.4,.22,.68,.22,.54-.07,.79-.2Zm0-7.74h1.54l-1.81,1.78h-1.16l1.43-1.78Z"/>
      <path class="cls-1" d="M218.84,48.12h1.42l1.72,4.56,1.7-4.56h1.34l-2.42,6.14h-1.35l-2.41-6.14Z"/>
      <path class="cls-1" d="M226.87,53.95c-.47-.26-.84-.64-1.1-1.12-.26-.48-.4-1.03-.4-1.65s.13-1.14,.39-1.62c.26-.48,.62-.86,1.08-1.13,.46-.28,.98-.41,1.56-.41s1.05,.12,1.48,.37c.43,.25,.77,.59,1.01,1.01,.24,.43,.36,.9,.36,1.41,0,.21-.02,.39-.06,.55h-4.48c0,.38,.09,.71,.25,.98,.16,.28,.37,.49,.63,.63,.26,.14,.56,.21,.89,.21,.39,0,.72-.1,.98-.29s.45-.44,.55-.74h1.23c-.06,.42-.23,.79-.49,1.13-.26,.33-.59,.59-.99,.78-.4,.19-.84,.28-1.31,.28-.58,0-1.11-.13-1.58-.4Zm2.77-4.23c-.13-.19-.3-.33-.51-.44-.21-.11-.46-.16-.73-.16-.39,0-.72,.11-1,.33-.28,.22-.48,.52-.59,.92h3.08c-.04-.24-.12-.46-.25-.65Z"/>
      <path class="cls-1" d="M232.5,45.27h1.32v8.98h-1.32v-8.98Z"/>
      <path class="cls-1" d="M235.67,54.1c-.17-.17-.26-.38-.26-.63s.09-.45,.26-.62c.17-.17,.38-.25,.63-.25s.46,.08,.63,.24,.25,.37,.25,.61-.09,.46-.26,.63-.38,.25-.63,.25-.45-.08-.63-.25Z"/>
    </g>
  </g>
</svg>
